# Blender 3.4.1
# www.blender.org
o Ceiling
v -1.995840 0.894921 -1.000398
v -1.995840 0.094284 -1.000398
v -1.995840 0.894921 0.000398
v -1.995840 0.094284 0.000398
v 1.995840 0.894921 -1.000398
v 1.995840 0.094284 -1.000398
v 1.995840 0.894921 0.000398
v 1.995840 0.094284 0.000398
v 1.330560 0.894921 0.000398
v 0.665280 0.894921 0.000398
v -0.000000 0.894921 0.000398
v -0.665280 0.894921 0.000398
v -1.330560 0.894921 0.000398
v -1.330560 0.094284 0.000398
v -0.665280 0.094284 0.000398
v 0.000000 0.094284 0.000398
v 0.665280 0.094284 0.000398
v 1.330560 0.094284 0.000398
v -1.330560 0.894921 -1.000398
v -0.665280 0.894921 -1.000398
v 0.000000 0.894921 -1.000398
v 0.665280 0.894921 -1.000398
v 1.330560 0.894921 -1.000398
v 1.330560 0.094284 -1.000398
v 0.665280 0.094284 -1.000398
v -0.000000 0.094284 -1.000398
v -0.665280 0.094284 -1.000398
v -1.330560 0.094284 -1.000398
v -1.995840 0.894921 -0.199761
v -1.995840 0.894921 -0.399920
v -1.995840 0.894921 -0.600080
v -1.995840 0.894921 -0.800239
v -1.995840 0.094877 -0.800239
v -1.995840 0.115969 -0.600080
v -1.995840 0.094255 -0.399920
v -1.995840 0.133720 -0.199761
v 1.995840 0.894921 -0.800239
v 1.995840 0.894921 -0.600080
v 1.995840 0.894921 -0.399920
v 1.995840 0.894921 -0.199761
v 1.995840 0.133720 -0.199761
v 1.995840 0.094284 -0.399920
v 1.995840 0.116186 -0.600080
v 1.995840 0.094284 -0.800239
v 1.330560 0.094382 -0.199761
v 1.330560 0.115169 -0.399920
v 1.330560 0.139538 -0.600080
v 1.330560 0.153660 -0.800239
v 0.665280 0.138309 -0.199761
v 0.665280 0.112020 -0.399920
v 0.665280 0.129379 -0.600080
v 0.665280 0.112020 -0.800239
v 0.000000 0.101283 -0.199761
v 0.000000 0.126903 -0.399920
v -0.000000 0.192547 -0.600080
v -0.000000 0.126903 -0.800239
v -0.665280 0.098357 -0.199761
v -0.665280 0.101562 -0.399920
v -0.665280 0.106469 -0.600080
v -0.665280 0.141672 -0.800239
v -1.330560 0.132873 -0.199761
v -1.330560 0.110599 -0.399920
v -1.330560 0.130571 -0.600080
v -1.330560 0.146442 -0.800239
v -1.330560 0.894921 -0.199761
v -1.330560 0.894921 -0.399920
v -1.330560 0.894921 -0.600080
v -1.330560 0.894921 -0.800239
v -0.665280 0.894921 -0.199761
v -0.665280 0.894921 -0.399920
v -0.665280 0.894921 -0.600080
v -0.665280 0.894921 -0.800239
v -0.000000 0.894921 -0.199761
v -0.000000 0.895014 -0.399920
v 0.000000 0.895170 -0.600080
v 0.000000 0.895014 -0.800239
v 0.665280 0.894921 -0.199761
v 0.665280 0.894921 -0.399920
v 0.665280 0.894921 -0.600080
v 0.665280 0.894921 -0.800239
v 1.330560 0.894921 -0.199761
v 1.330560 0.894921 -0.399920
v 1.330560 0.894921 -0.600080
v 1.330560 0.894921 -0.800239
v -1.995840 0.694762 -1.000398
v -1.995840 0.494602 -1.000398
v -1.995840 0.294443 -1.000398
v -1.995840 0.294443 0.000398
v -1.995840 0.494603 0.000398
v -1.995840 0.694762 0.000398
v 1.995840 0.294443 0.000398
v 1.995840 0.494603 0.000398
v 1.995840 0.694762 0.000398
v 1.995840 0.294443 -1.000398
v 1.995840 0.494602 -1.000398
v 1.995840 0.694762 -1.000398
v 1.330560 0.294487 -1.000398
v 1.330560 0.494602 -1.000398
v 1.330560 0.694762 -1.000398
v 0.665280 0.298057 -1.000398
v 0.665280 0.496463 -1.000398
v 0.665280 0.694967 -1.000398
v -0.000000 0.300795 -1.000398
v 0.000000 0.498416 -1.000398
v 0.000000 0.695770 -1.000398
v -0.665280 0.298057 -1.000398
v -0.665280 0.496463 -1.000398
v -0.665280 0.694967 -1.000398
v -1.330560 0.294487 -1.000398
v -1.330560 0.494602 -1.000398
v -1.330560 0.694762 -1.000398
v -1.330560 0.294443 0.000398
v -1.330560 0.494603 0.000398
v -1.330560 0.694762 0.000398
v -0.665280 0.295189 0.000398
v -0.665280 0.494734 0.000398
v -0.665280 0.694762 0.000398
v 0.000000 0.296488 0.000398
v 0.000000 0.495433 0.000398
v -0.000000 0.694762 0.000398
v 0.665280 0.295189 0.000398
v 0.665280 0.494734 0.000398
v 0.665280 0.694762 0.000398
v 1.330560 0.294443 0.000398
v 1.330560 0.494603 0.000398
v 1.330560 0.694762 0.000398
v 1.995840 0.294443 -0.199761
v 1.995840 0.494603 -0.199761
v 1.995840 0.694762 -0.199761
v 1.995840 0.294443 -0.399920
v 1.995840 0.494603 -0.399920
v 1.995840 0.694762 -0.399920
v 1.995840 0.294443 -0.600080
v 1.995840 0.494603 -0.600080
v 1.995840 0.694762 -0.600080
v 1.995840 0.294443 -0.800239
v 1.995840 0.494602 -0.800239
v 1.995840 0.694762 -0.800239
v -1.995840 0.301574 -0.800239
v -1.995840 0.494602 -0.800239
v -1.995840 0.694762 -0.800239
v -1.995840 0.314072 -0.600080
v -1.995840 0.494603 -0.600080
v -1.995840 0.694762 -0.600080
v -1.995840 0.301574 -0.399920
v -1.995840 0.494603 -0.399920
v -1.995840 0.694762 -0.399920
v -1.995840 0.294443 -0.199761
v -1.995840 0.494603 -0.199761
v -1.995840 0.694762 -0.199761
vn -1.0000 -0.0000 -0.0000
vn -0.0000 -0.0000 1.0000
vn 1.0000 -0.0000 -0.0000
vn -0.0000 -0.0000 -1.0000
vn -0.0000 1.0000 -0.0000
vn 0.0384 -0.9907 0.1305
vn -0.0441 -0.9882 0.1466
vn 0.0307 -0.9815 0.1891
vn -0.0111 -0.9921 0.1248
vn -0.0109 -0.9805 0.1960
vn -0.0035 -0.9704 0.2413
vn -0.0001 1.0000 -0.0002
vn 0.0001 1.0000 -0.0002
vn 0.0001 1.0000 0.0002
vn 0.0003 1.0000 0.0004
vn 0.0003 1.0000 -0.0004
vn -0.0001 1.0000 0.0002
vn -0.0003 1.0000 0.0004
vn -0.0003 1.0000 -0.0004
vn -0.0258 -0.9940 -0.1059
vn -0.0327 -0.9983 0.0476
vn -0.0249 -0.9978 -0.0620
vn -0.0215 -0.9917 -0.1265
vn 0.0022 -0.9996 -0.0276
vn 0.0212 -0.9972 -0.0718
vn 0.0822 -0.9815 -0.1730
vn 0.0534 -0.9957 0.0757
vn 0.0276 -0.9916 -0.1264
vn 0.0166 -0.9999 0.0017
vn -0.0573 -0.9776 -0.2027
vn -0.0573 -0.9776 0.2027
vn -0.0328 -0.9934 -0.1095
vn -0.0306 -0.9994 0.0137
vn 0.0099 -0.9946 -0.1037
vn 0.0389 -0.9992 0.0081
vn 0.0294 -0.9947 -0.0982
vn 0.0139 -0.9988 0.0465
vn -0.0330 -0.9928 -0.1148
vn -0.0620 -0.9979 0.0194
vn -0.0006 -0.9815 -0.1913
vn 0.0115 -0.9883 0.1524
vn 0.0231 -0.9944 -0.1035
vn 0.0497 -0.9987 0.0130
vt 0.000000 0.374640
vt 0.374640 0.401082
vt 0.000000 0.401082
vt 0.000000 0.601658
vt 0.000000 0.374640
vt 0.374640 0.601658
vt 0.000000 0.625360
vt 0.000000 0.401082
vt 0.625360 0.401082
vt 0.625360 0.601658
vt 0.000000 0.601658
vt 0.000000 0.625360
vt 1.000000 0.374640
vt 1.000000 0.401082
vt 0.374640 0.401082
vt 0.374640 0.601658
vt 1.000000 0.374640
vt 1.000000 0.601658
vt 1.000000 0.625360
vt 0.625360 0.401082
vt 1.000000 0.401082
vt 1.000000 0.601658
vt 1.000000 0.625360
vt 0.625360 0.601658
vt 0.833333 0.625360
vt 0.833333 0.401082
vt 0.666667 0.625360
vt 0.666667 0.401082
vt 0.500000 0.625360
vt 0.500000 0.401082
vt 0.333333 0.625360
vt 0.333333 0.401082
vt 0.166667 0.625360
vt 0.166667 0.401082
vt 0.166667 0.601658
vt 0.166667 0.625360
vt 0.333333 0.601658
vt 0.333333 0.625360
vt 0.500000 0.601658
vt 0.500000 0.625360
vt 0.666667 0.601658
vt 0.666667 0.625360
vt 0.833333 0.601658
vt 0.833333 0.625360
vt 0.166667 0.374640
vt 0.166667 0.401082
vt 0.333333 0.374640
vt 0.333333 0.401082
vt 0.500000 0.374640
vt 0.500000 0.401082
vt 0.666667 0.374640
vt 0.666667 0.401082
vt 0.833333 0.374640
vt 0.833333 0.401082
vt 0.833333 0.374640
vt 0.833333 0.601658
vt 0.666667 0.374640
vt 0.666667 0.601658
vt 0.500000 0.374640
vt 0.500000 0.601658
vt 0.333333 0.374640
vt 0.333333 0.601658
vt 0.166667 0.374640
vt 0.166667 0.601658
vt 0.000000 0.575216
vt 0.575216 0.401082
vt 0.000000 0.525072
vt 0.525072 0.401082
vt 0.000000 0.474928
vt 0.474928 0.401082
vt 0.000000 0.424784
vt 0.424784 0.401082
vt 0.000000 0.424784
vt 0.424784 0.601510
vt 0.000000 0.474928
vt 0.474928 0.596226
vt 0.000000 0.525072
vt 0.525072 0.601666
vt 0.000000 0.575216
vt 0.575216 0.591779
vt 1.000000 0.424784
vt 0.424784 0.401082
vt 1.000000 0.474928
vt 0.474928 0.401082
vt 1.000000 0.525072
vt 0.525072 0.401082
vt 1.000000 0.575216
vt 0.575216 0.401082
vt 1.000000 0.575216
vt 0.575216 0.591779
vt 1.000000 0.525072
vt 0.525072 0.601658
vt 1.000000 0.474928
vt 0.474928 0.596171
vt 1.000000 0.424784
vt 0.424784 0.601658
vt 0.833333 0.575216
vt 0.833333 0.525072
vt 0.833333 0.474928
vt 0.833333 0.424784
vt 0.666667 0.575216
vt 0.666667 0.525072
vt 0.666667 0.474928
vt 0.666667 0.424784
vt 0.500000 0.575216
vt 0.500000 0.525072
vt 0.500000 0.474928
vt 0.500000 0.424784
vt 0.333333 0.575216
vt 0.333333 0.525072
vt 0.333333 0.474928
vt 0.333333 0.424784
vt 0.166667 0.575216
vt 0.166667 0.525072
vt 0.166667 0.474928
vt 0.166667 0.424784
vt 0.166667 0.575216
vt 0.166667 0.525072
vt 0.166667 0.474928
vt 0.166667 0.424784
vt 0.333333 0.575216
vt 0.333333 0.525072
vt 0.333333 0.474928
vt 0.333333 0.424784
vt 0.500000 0.575216
vt 0.500000 0.525072
vt 0.500000 0.474928
vt 0.500000 0.424784
vt 0.666667 0.575216
vt 0.666667 0.525072
vt 0.666667 0.474928
vt 0.666667 0.424784
vt 0.833333 0.575216
vt 0.833333 0.525072
vt 0.833333 0.474928
vt 0.833333 0.424784
vt 0.374640 0.451226
vt 0.000000 0.451226
vt 0.374640 0.501370
vt 0.000000 0.501370
vt 0.374640 0.551514
vt 0.000000 0.551514
vt 0.000000 0.551514
vt 0.625360 0.551514
vt 0.000000 0.501370
vt 0.625360 0.501370
vt 0.000000 0.451226
vt 0.625360 0.451226
vt 0.625360 0.551514
vt 1.000000 0.551514
vt 0.625360 0.501370
vt 1.000000 0.501370
vt 0.625360 0.451226
vt 1.000000 0.451226
vt 1.000000 0.551514
vt 0.374640 0.551514
vt 1.000000 0.501370
vt 0.374640 0.501370
vt 1.000000 0.451226
vt 0.374640 0.451226
vt 0.833333 0.551503
vt 0.833333 0.501370
vt 0.833333 0.451226
vt 0.666667 0.550609
vt 0.666667 0.500904
vt 0.666667 0.451175
vt 0.500000 0.549923
vt 0.500000 0.500415
vt 0.500000 0.450974
vt 0.333333 0.550609
vt 0.333333 0.500904
vt 0.333333 0.451175
vt 0.166667 0.551503
vt 0.166667 0.501370
vt 0.166667 0.451226
vt 0.166667 0.551514
vt 0.166667 0.501370
vt 0.166667 0.451226
vt 0.333333 0.551328
vt 0.333333 0.501337
vt 0.333333 0.451226
vt 0.500000 0.551002
vt 0.500000 0.501162
vt 0.500000 0.451226
vt 0.666667 0.551328
vt 0.666667 0.501337
vt 0.666667 0.451226
vt 0.833333 0.551514
vt 0.833333 0.501370
vt 0.833333 0.451226
vt 0.575216 0.551514
vt 0.575216 0.501370
vt 0.575216 0.451226
vt 0.525072 0.551514
vt 0.525072 0.501370
vt 0.525072 0.451226
vt 0.474928 0.551514
vt 0.474928 0.501370
vt 0.474928 0.451226
vt 0.424784 0.551514
vt 0.424784 0.501370
vt 0.424784 0.451226
vt 0.424784 0.549728
vt 0.424784 0.501370
vt 0.424784 0.451226
vt 0.474928 0.546597
vt 0.474928 0.501370
vt 0.474928 0.451226
vt 0.525072 0.549728
vt 0.525072 0.501370
vt 0.525072 0.451226
vt 0.575216 0.551514
vt 0.575216 0.501370
vt 0.575216 0.451226
s 0
f 148/212/1 36/80/1 4/10/1 88/144/1
f 124/188/2 18/43/2 8/22/2 91/150/2
f 136/200/3 44/96/3 6/16/3 94/156/3
f 109/173/4 28/64/4 2/4/4 87/142/4
f 84/136/5 37/81/5 5/13/5 23/53/5
f 64/116/6 33/73/6 2/5/6 28/63/6
f 44/95/7 48/100/7 24/55/7 6/17/7
f 48/100/8 52/104/8 25/57/8 24/55/8
f 52/104/9 56/108/9 26/59/9 25/57/9
f 56/108/10 60/112/10 27/61/10 26/59/10
f 60/112/11 64/116/11 28/63/11 27/61/11
f 32/71/5 68/120/5 19/45/5 1/1/5
f 68/120/5 72/124/5 20/47/5 19/45/5
f 72/124/12 76/128/12 21/49/12 20/47/12
f 76/128/13 80/132/13 22/51/13 21/49/13
f 80/132/5 84/136/5 23/53/5 22/51/5
f 94/155/4 6/18/4 24/56/4 97/161/4
f 97/161/4 24/56/4 25/58/4 100/164/4
f 100/164/4 25/58/4 26/60/4 103/167/4
f 103/167/4 26/60/4 27/62/4 106/170/4
f 106/170/4 27/62/4 28/64/4 109/173/4
f 88/143/2 4/11/2 14/35/2 112/176/2
f 112/176/2 14/35/2 15/37/2 115/179/2
f 115/179/2 15/37/2 16/39/2 118/182/2
f 118/182/2 16/39/2 17/41/2 121/185/2
f 121/185/2 17/41/2 18/43/2 124/188/2
f 10/27/5 9/25/5 81/133/5 77/129/5
f 77/129/5 81/133/5 82/134/5 78/130/5
f 78/130/5 82/134/5 83/135/5 79/131/5
f 79/131/5 83/135/5 84/136/5 80/132/5
f 11/29/5 10/27/5 77/129/5 73/125/5
f 73/125/14 77/129/14 78/130/14 74/126/14
f 74/126/15 78/130/15 79/131/15 75/127/15
f 75/127/16 79/131/16 80/132/16 76/128/16
f 12/31/5 11/29/5 73/125/5 69/121/5
f 69/121/17 73/125/17 74/126/17 70/122/17
f 70/122/18 74/126/18 75/127/18 71/123/18
f 71/123/19 75/127/19 76/128/19 72/124/19
f 13/33/5 12/31/5 69/121/5 65/117/5
f 65/117/5 69/121/5 70/122/5 66/118/5
f 66/118/5 70/122/5 71/123/5 67/119/5
f 67/119/5 71/123/5 72/124/5 68/120/5
f 3/7/5 13/33/5 65/117/5 29/65/5
f 29/65/5 65/117/5 66/118/5 30/67/5
f 30/67/5 66/118/5 67/119/5 31/69/5
f 31/69/5 67/119/5 68/120/5 32/71/5
f 15/38/20 14/36/20 61/113/20 57/109/20
f 57/109/21 61/113/21 62/114/21 58/110/21
f 58/110/22 62/114/22 63/115/22 59/111/22
f 59/111/23 63/115/23 64/116/23 60/112/23
f 16/40/24 15/38/24 57/109/24 53/105/24
f 53/105/25 57/109/25 58/110/25 54/106/25
f 54/106/26 58/110/26 59/111/26 55/107/26
f 55/107/27 59/111/27 60/112/27 56/108/27
f 17/42/28 16/40/28 53/105/28 49/101/28
f 49/101/29 53/105/29 54/106/29 50/102/29
f 50/102/30 54/106/30 55/107/30 51/103/30
f 51/103/31 55/107/31 56/108/31 52/104/31
f 18/44/32 17/42/32 49/101/32 45/97/32
f 45/97/33 49/101/33 50/102/33 46/98/33
f 46/98/34 50/102/34 51/103/34 47/99/34
f 47/99/35 51/103/35 52/104/35 48/100/35
f 8/23/36 18/44/36 45/97/36 41/89/36
f 41/89/37 45/97/37 46/98/37 42/91/37
f 42/91/38 46/98/38 47/99/38 43/93/38
f 43/93/39 47/99/39 48/100/39 44/95/39
f 14/36/40 4/12/40 36/79/40 61/113/40
f 61/113/41 36/79/41 35/77/41 62/114/41
f 62/114/42 35/77/42 34/75/42 63/115/42
f 63/115/43 34/75/43 33/73/43 64/116/43
f 9/25/5 7/19/5 40/87/5 81/133/5
f 81/133/5 40/87/5 39/85/5 82/134/5
f 82/134/5 39/85/5 38/83/5 83/135/5
f 83/135/5 38/83/5 37/81/5 84/136/5
f 91/149/3 8/24/3 41/90/3 127/191/3
f 127/191/3 41/90/3 42/92/3 130/194/3
f 130/194/3 42/92/3 43/94/3 133/197/3
f 133/197/3 43/94/3 44/96/3 136/200/3
f 87/141/1 2/6/1 33/74/1 139/203/1
f 139/203/1 33/74/1 34/76/1 142/206/1
f 142/206/1 34/76/1 35/78/1 145/209/1
f 145/209/1 35/78/1 36/80/1 148/212/1
f 30/68/1 147/211/1 150/214/1 29/66/1
f 147/211/1 146/210/1 149/213/1 150/214/1
f 146/210/1 145/209/1 148/212/1 149/213/1
f 31/70/1 144/208/1 147/211/1 30/68/1
f 144/208/1 143/207/1 146/210/1 147/211/1
f 143/207/1 142/206/1 145/209/1 146/210/1
f 32/72/1 141/205/1 144/208/1 31/70/1
f 141/205/1 140/204/1 143/207/1 144/208/1
f 140/204/1 139/203/1 142/206/1 143/207/1
f 1/2/1 85/137/1 141/205/1 32/72/1
f 85/137/1 86/139/1 140/204/1 141/205/1
f 86/139/1 87/141/1 139/203/1 140/204/1
f 38/84/3 135/199/3 138/202/3 37/82/3
f 135/199/3 134/198/3 137/201/3 138/202/3
f 134/198/3 133/197/3 136/200/3 137/201/3
f 39/86/3 132/196/3 135/199/3 38/84/3
f 132/196/3 131/195/3 134/198/3 135/199/3
f 131/195/3 130/194/3 133/197/3 134/198/3
f 40/88/3 129/193/3 132/196/3 39/86/3
f 129/193/3 128/192/3 131/195/3 132/196/3
f 128/192/3 127/191/3 130/194/3 131/195/3
f 7/20/3 93/153/3 129/193/3 40/88/3
f 93/153/3 92/151/3 128/192/3 129/193/3
f 92/151/3 91/149/3 127/191/3 128/192/3
f 10/28/2 123/187/2 126/190/2 9/26/2
f 123/187/2 122/186/2 125/189/2 126/190/2
f 122/186/2 121/185/2 124/188/2 125/189/2
f 11/30/2 120/184/2 123/187/2 10/28/2
f 120/184/2 119/183/2 122/186/2 123/187/2
f 119/183/2 118/182/2 121/185/2 122/186/2
f 12/32/2 117/181/2 120/184/2 11/30/2
f 117/181/2 116/180/2 119/183/2 120/184/2
f 116/180/2 115/179/2 118/182/2 119/183/2
f 13/34/2 114/178/2 117/181/2 12/32/2
f 114/178/2 113/177/2 116/180/2 117/181/2
f 113/177/2 112/176/2 115/179/2 116/180/2
f 3/8/2 90/147/2 114/178/2 13/34/2
f 90/147/2 89/145/2 113/177/2 114/178/2
f 89/145/2 88/143/2 112/176/2 113/177/2
f 20/48/4 108/172/4 111/175/4 19/46/4
f 108/172/4 107/171/4 110/174/4 111/175/4
f 107/171/4 106/170/4 109/173/4 110/174/4
f 21/50/4 105/169/4 108/172/4 20/48/4
f 105/169/4 104/168/4 107/171/4 108/172/4
f 104/168/4 103/167/4 106/170/4 107/171/4
f 22/52/4 102/166/4 105/169/4 21/50/4
f 102/166/4 101/165/4 104/168/4 105/169/4
f 101/165/4 100/164/4 103/167/4 104/168/4
f 23/54/4 99/163/4 102/166/4 22/52/4
f 99/163/4 98/162/4 101/165/4 102/166/4
f 98/162/4 97/161/4 100/164/4 101/165/4
f 5/14/4 96/159/4 99/163/4 23/54/4
f 96/159/4 95/157/4 98/162/4 99/163/4
f 95/157/4 94/155/4 97/161/4 98/162/4
f 19/46/4 111/175/4 85/138/4 1/3/4
f 111/175/4 110/174/4 86/140/4 85/138/4
f 110/174/4 109/173/4 87/142/4 86/140/4
f 37/82/3 138/202/3 96/160/3 5/15/3
f 138/202/3 137/201/3 95/158/3 96/160/3
f 137/201/3 136/200/3 94/156/3 95/158/3
f 9/26/2 126/190/2 93/154/2 7/21/2
f 126/190/2 125/189/2 92/152/2 93/154/2
f 125/189/2 124/188/2 91/150/2 92/152/2
f 29/66/1 150/214/1 90/148/1 3/9/1
f 150/214/1 149/213/1 89/146/1 90/148/1
f 149/213/1 148/212/1 88/144/1 89/146/1
