# Blender 3.4.1
# www.blender.org
o PlatformEnd
v 1.997311 0.229798 -0.897050
v 1.997311 0.756702 -0.858578
v 1.997311 0.101209 -0.107656
v 1.997311 0.901846 -0.107656
v -1.994369 0.229798 -0.897166
v -1.994369 0.756702 -0.858610
v -1.994369 0.101209 -0.107656
v -1.994369 0.901846 -0.107656
v 1.997311 0.122859 -0.406425
v 1.997311 0.192174 -0.640318
v 1.997311 0.801394 -0.629971
v 1.997311 0.877371 -0.405955
v -1.994369 0.190070 -0.631903
v -1.994369 0.122859 -0.406426
v -1.994369 0.877371 -0.405955
v -1.994369 0.801394 -0.620936
v 1.997311 0.403524 -0.891106
v 1.997311 0.604412 -0.852915
v 1.997311 0.668327 -0.107656
v 1.997311 0.334728 -0.107656
v -1.994369 0.668327 -0.107656
v -1.994369 0.334728 -0.107656
v -1.994369 0.604412 -0.852937
v -1.994369 0.403524 -0.891105
v -1.994369 0.656736 -0.424538
v -1.994369 0.344981 -0.424761
v -1.994369 0.611801 -0.634871
v -1.994369 0.382171 -0.652698
v 1.997311 0.611801 -0.670793
v 1.997311 0.382171 -0.687201
v 1.997311 0.656736 -0.424537
v 1.997311 0.344981 -0.424760
v -1.329089 0.101209 -0.107656
v -0.663809 0.101209 -0.107656
v 0.001471 0.101209 -0.107656
v 0.666751 0.101209 -0.107656
v 1.332031 0.101209 -0.107656
v 1.332031 0.901846 -0.107656
v 0.666751 0.901846 -0.107656
v 0.001471 0.901846 -0.107656
v -0.663809 0.901846 -0.107656
v -1.329089 0.901846 -0.107656
v 1.332031 0.229798 -0.992539
v 0.666751 0.229798 -0.891452
v 0.001471 0.229798 -0.896662
v -0.663809 0.229798 -0.897166
v -1.329089 0.229798 -0.864480
v -1.329089 0.756702 -0.780137
v -0.663809 0.756702 -0.858610
v -0.021415 0.766990 -0.864813
v 0.666451 0.756837 -0.769332
v 1.332031 0.756702 -0.798890
v 1.332031 0.877371 -0.405955
v 0.666751 0.877371 -0.405955
v -0.024453 0.889024 -0.418126
v -0.663809 0.877371 -0.405955
v -1.329089 0.877371 -0.405955
v 1.332031 0.801394 -0.607101
v 0.663898 0.802677 -0.575417
v -0.070197 0.833611 -0.653553
v -0.667045 0.802849 -0.622455
v -1.329089 0.801394 -0.579798
v -1.329089 0.122859 -0.406425
v -0.663809 0.122859 -0.406425
v 0.001471 0.122859 -0.406425
v 0.666751 0.122859 -0.406425
v 1.332031 0.122859 -0.406439
v -1.329089 0.190070 -0.626648
v -0.663809 0.190070 -0.631903
v 0.001471 0.190070 -0.631903
v 0.666751 0.190070 -0.633902
v 1.332031 0.190070 -0.676726
v -1.329089 0.403524 -0.821250
v -0.663809 0.403524 -0.891104
v 0.001471 0.403524 -0.887455
v 0.666751 0.403524 -0.851402
v 1.332031 0.403524 -1.011688
v -1.329089 0.604412 -0.760208
v -0.663809 0.604412 -0.852937
v -0.007000 0.608220 -0.851002
v 0.666751 0.604412 -0.764461
v 1.332031 0.604412 -0.875034
v 1.332031 0.334728 -0.107656
v 0.666751 0.334728 -0.107656
v 0.001471 0.334728 -0.107656
v -0.663809 0.334728 -0.107656
v -1.329089 0.334728 -0.107656
v 1.332031 0.668327 -0.107656
v 0.666751 0.668327 -0.107656
v 0.001471 0.668327 -0.107656
v -0.663809 0.668327 -0.107656
v -1.329089 0.668327 -0.107656
vn 1.0000 -0.0000 -0.0000
vn -0.0000 -0.0000 1.0000
vn -1.0000 -0.0000 -0.0000
vn -0.0275 0.2254 -0.9739
vn 0.0044 -0.9877 -0.1560
vn -0.0129 0.9781 -0.2080
vn -0.0000 0.9967 -0.0818
vn -0.0058 0.9416 -0.3365
vn -0.0000 -0.9974 -0.0723
vn 0.0011 -0.9574 -0.2887
vn 0.1602 -0.0375 -0.9864
vn 0.0979 0.3971 -0.9125
vn 0.1178 0.2381 -0.9641
vn -0.1178 0.2381 -0.9641
vn 0.0036 0.1810 -0.9835
vn 0.0880 0.2916 -0.9525
vn -0.1751 0.4788 -0.8603
vn 0.0761 0.1401 -0.9872
vn -0.0761 0.1401 -0.9872
vn 0.0031 0.0439 -0.9990
vn 0.0307 0.1403 -0.9896
vn -0.1924 0.0589 -0.9795
vn 0.0087 -0.9652 -0.2614
vn -0.0084 -0.9654 -0.2607
vn -0.0004 -0.9587 -0.2845
vn -0.0000 -0.9583 -0.2857
vn -0.0011 -0.9574 -0.2887
vn 0.0113 0.9313 -0.3640
vn -0.0126 0.9330 -0.3596
vn -0.0425 0.9614 -0.2718
vn 0.0481 0.9493 -0.3108
vn -0.0081 0.9264 -0.3766
vn -0.0095 0.9981 -0.0607
vn 0.0091 0.9981 -0.0615
vn 0.0180 0.9796 -0.1999
vn -0.0197 0.9788 -0.2038
vn -0.0395 0.9678 -0.2485
vn 0.0596 0.9638 -0.2600
vn -0.0095 0.9735 -0.2286
vn 0.0148 -0.9909 -0.1339
vn -0.0148 -0.9904 -0.1373
vn 0.0004 -0.9886 -0.1504
vn 0.0001 -0.9889 -0.1483
vn -0.0044 -0.9877 -0.1560
vn 0.1272 -0.0831 -0.9884
vn -0.1272 -0.0831 -0.9884
vn -0.0026 -0.0626 -0.9980
vn 0.1318 -0.0532 -0.9899
vn -0.1020 0.2265 -0.9687
vt 0.555946 0.596923
vt 0.278167 1.000000
vt 0.285388 0.357116
vt 0.466509 0.999712
vt 0.001391 0.714251
vt 0.569674 0.408908
vt 0.837626 0.642808
vt 0.604678 0.357115
vt 0.000000 0.357116
vt 0.837626 0.357116
vt 0.274224 0.714229
vt 0.318986 0.357115
vt 0.285429 0.000000
vt 0.274224 0.403000
vt 0.278145 0.643094
vt 0.287982 0.591016
vt 0.001380 0.357138
vt 0.466490 0.642808
vt 0.000000 0.000001
vt 0.555946 0.357116
vt 0.604678 0.000000
vt 0.318986 0.000000
vt 0.555946 0.642808
vt 0.274224 0.357116
vt 0.731016 0.635082
vt 0.106409 0.357115
vt 0.647556 0.610349
vt 0.192822 0.357116
vt 0.084489 0.714245
vt 0.651248 0.392960
vt 0.168368 0.714277
vt 0.731184 0.365849
vt 0.189736 0.000001
vt 0.368878 0.388824
vt 0.106409 0.000000
vt 0.449336 0.364841
vt 0.449504 0.634075
vt 0.168368 0.357164
vt 0.372792 0.606964
vt 0.087639 0.357129
vt 0.558067 0.534932
vt 0.339987 0.999823
vt 0.571694 0.463249
vt 0.412765 1.000000
vt 0.837626 0.440443
vt 0.402313 0.357115
vt 0.837626 0.559481
vt 0.521351 0.357115
vt 0.555946 0.559481
vt 0.402313 0.000000
vt 0.555946 0.440443
vt 0.521351 0.000000
vt 0.290007 0.536674
vt 0.412747 0.643095
vt 0.276387 0.464991
vt 0.339970 0.642919
vt 0.442873 0.555345
vt 0.442793 0.444101
vt 0.367819 0.539311
vt 0.361458 0.457372
vt 0.636681 0.460613
vt 0.630826 0.542552
vt 0.724553 0.444578
vt 0.724473 0.555822
vt 0.604678 0.059519
vt 0.000000 0.059520
vt 0.604678 0.119038
vt 0.000000 0.119039
vt 0.604678 0.178558
vt 0.000000 0.178558
vt 0.604678 0.238077
vt 0.000000 0.238077
vt 0.604678 0.297596
vt 0.000000 0.297597
vt 0.274224 0.654710
vt 0.318986 0.297596
vt 0.274224 0.595191
vt 0.318986 0.238077
vt 0.274224 0.535672
vt 0.318986 0.178558
vt 0.274224 0.476153
vt 0.318986 0.119038
vt 0.274224 0.416635
vt 0.318986 0.059519
vt 0.274224 0.939353
vt 0.318986 0.297596
vt 0.278392 0.881100
vt 0.283419 0.238077
vt 0.278174 0.821553
vt 0.285252 0.178558
vt 0.278151 0.762062
vt 0.285429 0.119039
vt 0.279497 0.702976
vt 0.273928 0.059520
vt 0.028737 0.416636
vt 0.469731 0.703248
vt 0.001380 0.476176
vt 0.466496 0.761776
vt 0.000000 0.533661
vt 0.469889 0.819123
vt 0.032514 0.595163
vt 0.470233 0.881804
vt 0.022199 0.654717
vt 0.468969 0.940955
vt 0.168368 0.654758
vt 0.168368 0.595239
vt 0.165012 0.533418
vt 0.168368 0.476202
vt 0.168368 0.416683
vt 0.092462 0.654720
vt 0.103606 0.594939
vt 0.078720 0.529321
vt 0.087220 0.475880
vt 0.101981 0.416638
vt 0.106409 0.059519
vt 0.106409 0.119038
vt 0.106409 0.178558
vt 0.106409 0.238077
vt 0.106413 0.297596
vt 0.187887 0.059520
vt 0.189736 0.119039
vt 0.189736 0.178558
vt 0.190439 0.238077
vt 0.205507 0.297596
vt 0.342855 0.703254
vt 0.339976 0.761887
vt 0.340129 0.821415
vt 0.341619 0.881339
vt 0.335009 0.938870
vt 0.416576 0.703709
vt 0.412753 0.762064
vt 0.414185 0.820808
vt 0.416409 0.882109
vt 0.411850 0.940247
vt 0.521351 0.297596
vt 0.521351 0.238077
vt 0.521351 0.178558
vt 0.521351 0.119038
vt 0.521351 0.059519
vt 0.402313 0.297596
vt 0.402313 0.238077
vt 0.402313 0.178558
vt 0.402313 0.119038
vt 0.402313 0.059519
s 0
f 31/63/1 12/32/1 4/10/1 19/45/1
f 92/144/2 42/84/2 8/22/2 21/50/2
f 27/59/3 16/39/3 6/16/3 23/53/3
f 82/134/4 52/104/4 2/4/4 18/44/4
f 68/120/5 13/33/5 5/13/5 47/94/5
f 58/110/6 11/29/6 2/5/6 52/103/6
f 38/75/7 4/11/7 12/31/7 53/105/7
f 53/105/8 12/31/8 11/29/8 58/110/8
f 33/66/9 7/19/9 14/35/9 63/115/9
f 63/115/10 14/35/10 13/33/10 68/120/10
f 21/49/3 8/23/3 15/37/3 25/57/3
f 25/57/3 15/37/3 16/39/3 27/59/3
f 18/43/1 2/6/1 11/30/1 29/61/1
f 29/61/1 11/30/1 12/32/1 31/63/1
f 10/27/1 30/62/1 32/64/1 9/25/1
f 30/62/1 29/61/1 31/63/1 32/64/1
f 1/1/1 17/41/1 30/62/1 10/27/1
f 17/41/1 18/43/1 29/61/1 30/62/1
f 14/36/3 26/58/3 28/60/3 13/34/3
f 26/58/3 25/57/3 27/59/3 28/60/3
f 7/20/3 22/51/3 26/58/3 14/36/3
f 22/51/3 21/49/3 25/57/3 26/58/3
f 43/85/11 77/129/11 17/42/11 1/2/11
f 77/129/12 82/134/12 18/44/12 17/42/12
f 13/34/3 28/60/3 24/55/3 5/14/3
f 28/60/3 27/59/3 23/53/3 24/55/3
f 33/65/2 87/139/2 22/52/2 7/21/2
f 87/139/2 92/144/2 21/50/2 22/52/2
f 9/25/1 32/64/1 20/47/1 3/7/1
f 32/64/1 31/63/1 19/45/1 20/47/1
f 20/48/2 19/46/2 88/140/2 83/135/2
f 83/135/2 88/140/2 89/141/2 84/136/2
f 84/136/2 89/141/2 90/142/2 85/137/2
f 85/137/2 90/142/2 91/143/2 86/138/2
f 86/138/2 91/143/2 92/144/2 87/139/2
f 3/8/2 20/48/2 83/135/2 37/73/2
f 37/73/2 83/135/2 84/136/2 36/71/2
f 36/71/2 84/136/2 85/137/2 35/69/2
f 35/69/2 85/137/2 86/138/2 34/67/2
f 34/67/2 86/138/2 87/139/2 33/65/2
f 24/56/13 23/54/13 78/130/13 73/125/13
f 73/125/14 78/130/14 79/131/14 74/126/14
f 74/126/15 79/131/15 80/132/15 75/127/15
f 75/127/16 80/132/16 81/133/16 76/128/16
f 76/128/17 81/133/17 82/134/17 77/129/17
f 5/15/18 24/56/18 73/125/18 47/93/18
f 47/93/19 73/125/19 74/126/19 46/91/19
f 46/91/20 74/126/20 75/127/20 45/89/20
f 45/89/21 75/127/21 76/128/21 44/87/21
f 44/87/22 76/128/22 77/129/22 43/85/22
f 9/26/23 67/119/23 72/124/23 10/28/23
f 67/119/24 66/118/24 71/123/24 72/124/24
f 66/118/25 65/117/25 70/122/25 71/123/25
f 65/117/26 64/116/26 69/121/26 70/122/26
f 64/116/27 63/115/27 68/120/27 69/121/27
f 3/9/9 37/74/9 67/119/9 9/26/9
f 37/74/9 36/72/9 66/118/9 67/119/9
f 36/72/9 35/70/9 65/117/9 66/118/9
f 35/70/9 34/68/9 64/116/9 65/117/9
f 34/68/9 33/66/9 63/115/9 64/116/9
f 15/38/28 57/109/28 62/114/28 16/40/28
f 57/109/29 56/108/29 61/113/29 62/114/29
f 56/108/30 55/107/30 60/112/30 61/113/30
f 55/107/31 54/106/31 59/111/31 60/112/31
f 54/106/32 53/105/32 58/110/32 59/111/32
f 8/24/7 42/83/7 57/109/7 15/38/7
f 42/83/7 41/81/7 56/108/7 57/109/7
f 41/81/33 40/79/33 55/107/33 56/108/33
f 40/79/34 39/77/34 54/106/34 55/107/34
f 39/77/7 38/75/7 53/105/7 54/106/7
f 16/40/35 62/114/35 48/95/35 6/17/35
f 62/114/36 61/113/36 49/97/36 48/95/36
f 61/113/37 60/112/37 50/99/37 49/97/37
f 60/112/38 59/111/38 51/101/38 50/99/38
f 59/111/39 58/110/39 52/103/39 51/101/39
f 10/28/40 72/124/40 43/86/40 1/3/40
f 72/124/41 71/123/41 44/88/41 43/86/41
f 71/123/42 70/122/42 45/90/42 44/88/42
f 70/122/43 69/121/43 46/92/43 45/90/43
f 69/121/44 68/120/44 47/94/44 46/92/44
f 23/54/45 6/18/45 48/96/45 78/130/45
f 78/130/46 48/96/46 49/98/46 79/131/46
f 79/131/47 49/98/47 50/100/47 80/132/47
f 80/132/48 50/100/48 51/102/48 81/133/48
f 81/133/49 51/102/49 52/104/49 82/134/49
f 19/46/2 4/12/2 38/76/2 88/140/2
f 88/140/2 38/76/2 39/78/2 89/141/2
f 89/141/2 39/78/2 40/80/2 90/142/2
f 90/142/2 40/80/2 41/82/2 91/143/2
f 91/143/2 41/82/2 42/84/2 92/144/2
