# Blender 3.4.1
# www.blender.org
o WallLeft
v -1.995840 -0.000398 -0.099883
v -1.995840 1.000398 -0.099883
v -1.995840 -0.000398 -0.906630
v -1.995840 1.000398 -0.905578
v 1.995840 -0.000398 -0.099883
v 1.995840 1.000398 -0.099883
v 1.995840 -0.000398 -0.906905
v 1.995840 1.000398 -0.905648
v 0.665280 -0.000398 -0.903298
v -0.665280 -0.000398 -0.847124
v -0.665280 1.000398 -0.847124
v 0.665280 1.000398 -0.902885
v -0.665280 -0.000398 -0.099883
v 0.665280 -0.000398 -0.099883
v 0.665280 1.000398 -0.099883
v -0.665280 1.000398 -0.099883
v -1.995840 0.333201 -0.099883
v -1.995840 0.666799 -0.099883
v -1.995840 0.666799 -0.906630
v -1.995840 0.333201 -0.811590
v 1.995840 0.666799 -0.906972
v 1.995840 0.333201 -0.811484
v 1.995840 0.666799 -0.099883
v 1.995840 0.333201 -0.099883
v 0.665280 0.666799 -0.099883
v 0.665280 0.333201 -0.099883
v -0.665280 0.666799 -0.099883
v -0.665280 0.333201 -0.099883
v -0.665280 0.666799 -1.001171
v -0.665280 0.333201 -1.001171
v 0.665280 0.666799 -0.804081
v 0.665280 0.333201 -0.857200
v 0.000000 -0.000398 -0.952235
v 0.000000 1.000398 -0.952028
v 0.000000 -0.000398 -0.099883
v 0.000000 1.000398 -0.099883
v 0.000000 0.333201 -0.929186
v 0.000000 0.666799 -1.059937
v 0.000000 0.333201 -0.099883
v 0.000000 0.666799 -0.099883
v -1.330560 -0.000398 -0.953901
v -1.330560 1.000398 -0.099883
v -1.330560 1.000398 -0.953375
v -1.330560 -0.000398 -0.099883
v -1.330560 0.333201 -0.906381
v -1.330560 0.666799 -0.953901
v -1.330560 0.333201 -0.099883
v -1.330560 0.666799 -0.099883
v 1.330560 1.000398 -0.902946
v 1.330560 -0.000398 -0.099883
v 1.330560 -0.000398 -0.903530
v 1.330560 1.000398 -0.099883
v 1.330560 0.333201 -0.099883
v 1.330560 0.666799 -0.099883
v 1.330560 0.333201 -0.659858
v 1.330560 0.666799 -0.850501
vn -1.0000 -0.0000 -0.0000
vn -0.0443 -0.0763 -0.9961
vn 1.0000 -0.0000 -0.0000
vn -0.0000 -0.0000 1.0000
vn -0.0000 -1.0000 -0.0000
vn -0.0000 1.0000 -0.0000
vn 0.0431 0.2255 -0.9733
vn 0.2234 0.0133 -0.9746
vn 0.0900 0.1027 -0.9906
vn 0.2377 -0.1123 -0.9648
vn 0.0089 -0.1577 -0.9875
vn -0.1059 -0.0706 -0.9919
vn -0.1033 0.4507 -0.8867
vn -0.1423 -0.3901 -0.9097
vn 0.0097 -0.1923 -0.9813
vn -0.0244 -0.1926 -0.9810
vn -0.1138 0.3631 -0.9248
vn -0.1038 -0.2078 -0.9726
vn -0.1038 0.2078 -0.9726
vn -0.0713 0.0024 -0.9975
vn 0.1104 -0.2006 -0.9734
vn 0.1346 0.3947 -0.9089
vn -0.0340 -0.2210 -0.9747
vt 0.539958 0.000000
vt 0.487769 0.808912
vt 0.770050 0.539275
vt 0.487769 0.539275
vt 0.270321 0.000000
vt 0.770050 0.539275
vt 0.705125 0.808912
vt 0.000433 0.000510
vt 0.552694 0.539275
vt 0.704842 0.539275
vt 0.987122 0.539275
vt 0.269960 0.000356
vt 0.770050 0.000000
vt 0.270321 0.539275
vt 0.539958 0.539275
vt 0.270321 0.808912
vt 0.270321 0.539275
vt 0.770050 0.000000
vt 0.552620 0.000000
vt 0.487751 0.539275
vt 0.000466 0.539699
vt 0.269990 0.539543
vt 0.487412 0.808912
vt 0.987141 0.000000
vt 0.000429 0.359952
vt 0.553592 0.179758
vt 0.000000 0.179951
vt 0.568726 0.359516
vt 0.269534 0.179802
vt 0.971374 0.359516
vt 0.986397 0.179758
vt 0.269960 0.359801
vt 0.770050 0.359516
vt 0.539958 0.179758
vt 0.539958 0.359516
vt 0.770050 0.179758
vt 0.270321 0.359516
vt 0.770050 0.179758
vt 0.770050 0.359516
vt 0.270321 0.179758
vt 0.450079 0.000000
vt 0.487769 0.719033
vt 0.360200 0.000000
vt 0.487769 0.629154
vt 0.705125 0.629154
vt 0.180123 0.000411
vt 0.679519 0.719033
vt 0.089570 0.000000
vt 0.487769 0.719033
vt 0.180156 0.539600
vt 0.462043 0.629154
vt 0.089599 0.539187
vt 0.270321 0.719033
vt 0.360200 0.539275
vt 0.270321 0.629154
vt 0.450079 0.539275
vt 0.360200 0.359516
vt 0.450079 0.359516
vt 0.360200 0.179758
vt 0.450079 0.179758
vt 0.180837 0.180598
vt 0.090993 0.180647
vt 0.179379 0.359372
vt 0.089930 0.359679
vt 0.000788 0.270325
vt 0.540407 0.269637
vt 0.270321 0.270175
vt 0.999637 0.269637
vt 0.539958 0.269637
vt 0.770050 0.269637
vt 0.270321 0.269637
vt 0.770050 0.269637
vt 0.090461 0.270163
vt 0.181280 0.270747
vt 0.450079 0.269637
vt 0.360200 0.269637
vt 0.000791 0.090604
vt 0.539958 0.449396
vt 0.770050 0.449396
vt 0.270321 0.089879
vt 0.270321 0.090452
vt 1.000000 0.449396
vt 0.539958 0.089879
vt 0.770050 0.449396
vt 0.090281 0.090324
vt 0.180480 0.090504
vt 0.450079 0.089879
vt 0.360200 0.089879
vt 0.986413 0.089879
vt 0.269965 0.449666
vt 0.539958 0.449396
vt 0.770050 0.089879
vt 0.000435 0.449818
vt 0.553529 0.089879
vt 0.270321 0.449396
vt 0.770050 0.089879
vt 0.450079 0.449396
vt 0.360200 0.449396
vt 0.088464 0.448588
vt 0.179730 0.449462
s 0
f 18/44/1 2/4/1 4/10/1 19/45/1
f 56/100/2 49/90/2 8/22/2 21/50/2
f 21/49/3 8/23/3 6/16/3 23/53/3
f 48/88/4 42/80/4 2/5/4 18/43/4
f 51/94/5 7/19/5 5/13/5 50/92/5
f 43/82/6 4/11/6 2/6/6 42/79/6
f 49/89/6 12/31/6 15/38/6 52/96/6
f 34/68/6 11/30/6 16/39/6 36/72/6
f 41/78/5 10/28/5 13/33/5 44/84/5
f 33/66/5 9/26/5 14/36/5 35/70/5
f 54/98/4 52/95/4 15/37/4 25/57/4
f 40/76/4 36/71/4 16/40/4 27/59/4
f 46/86/7 43/81/7 11/29/7 29/61/7
f 38/74/8 34/67/8 12/32/8 31/63/8
f 33/65/9 37/73/9 32/64/9 9/25/9
f 37/73/10 38/74/10 31/63/10 32/64/10
f 41/77/11 45/85/11 30/62/11 10/27/11
f 45/85/12 46/86/12 29/61/12 30/62/12
f 35/69/4 39/75/4 28/60/4 13/34/4
f 39/75/4 40/76/4 27/59/4 28/60/4
f 50/91/4 53/97/4 26/58/4 14/35/4
f 53/97/4 54/98/4 25/57/4 26/58/4
f 44/83/4 47/87/4 17/41/4 1/1/4
f 47/87/4 48/88/4 18/43/4 17/41/4
f 7/20/3 22/51/3 24/55/3 5/14/3
f 22/51/3 21/49/3 23/53/3 24/55/3
f 51/93/13 55/99/13 22/52/13 7/21/13
f 55/99/14 56/100/14 21/50/14 22/52/14
f 1/2/1 17/42/1 20/47/1 3/7/1
f 17/42/1 18/44/1 19/45/1 20/47/1
f 26/58/4 25/57/4 40/76/4 39/75/4
f 14/35/4 26/58/4 39/75/4 35/69/4
f 30/62/15 29/61/15 38/74/15 37/73/15
f 10/27/16 30/62/16 37/73/16 33/65/16
f 29/61/17 11/29/17 34/67/17 38/74/17
f 25/57/4 15/37/4 36/71/4 40/76/4
f 10/28/5 33/66/5 35/70/5 13/33/5
f 12/31/6 34/68/6 36/72/6 15/38/6
f 28/60/4 27/59/4 48/88/4 47/87/4
f 13/34/4 28/60/4 47/87/4 44/83/4
f 20/48/18 19/46/18 46/86/18 45/85/18
f 3/8/19 20/48/19 45/85/19 41/77/19
f 19/46/20 4/12/20 43/81/20 46/86/20
f 3/9/5 41/78/5 44/84/5 1/3/5
f 11/30/6 43/82/6 42/79/6 16/39/6
f 27/59/4 16/40/4 42/80/4 48/88/4
f 32/64/21 31/63/21 56/100/21 55/99/21
f 9/25/22 32/64/22 55/99/22 51/93/22
f 24/56/4 23/54/4 54/98/4 53/97/4
f 5/15/4 24/56/4 53/97/4 50/91/4
f 23/54/4 6/17/4 52/95/4 54/98/4
f 8/24/6 49/89/6 52/96/6 6/18/6
f 9/26/5 51/94/5 50/92/5 14/36/5
f 31/63/23 12/32/23 49/90/23 56/100/23
